<svg width="25" height="24" viewBox="0 0 25 24" fill="none" xmlns="http://www.w3.org/2000/svg">
<g id="UsersThree" clip-path="url(#clip0_22_2538)">
<path id="Vector" d="M23.7 14.0999C23.6212 14.159 23.5316 14.202 23.4362 14.2265C23.3408 14.2509 23.2415 14.2563 23.144 14.2424C23.0465 14.2285 22.9527 14.1955 22.8679 14.1453C22.7832 14.0951 22.7091 14.0287 22.65 13.9499C22.198 13.3423 21.6096 12.8493 20.9322 12.5106C20.2548 12.1719 19.5074 11.997 18.75 11.9999C18.6026 11.9999 18.4583 11.9564 18.3355 11.8749C18.2126 11.7933 18.1164 11.6774 18.0591 11.5415C18.0202 11.4492 18.0001 11.3501 18.0001 11.2499C18.0001 11.1498 18.0202 11.0506 18.0591 10.9584C18.1164 10.8225 18.2126 10.7065 18.3355 10.625C18.4583 10.5434 18.6026 10.4999 18.75 10.4999C19.1709 10.4999 19.5832 10.3818 19.9403 10.1592C20.2974 9.93653 20.5849 9.61819 20.7701 9.24034C20.9554 8.86248 21.0309 8.44025 20.9882 8.02161C20.9455 7.60296 20.7863 7.20468 20.5286 6.87201C20.2709 6.53933 19.925 6.2856 19.5303 6.13963C19.1356 5.99365 18.7079 5.96129 18.2958 6.04622C17.8836 6.13115 17.5035 6.32996 17.1987 6.62007C16.8939 6.91018 16.6765 7.27997 16.5713 7.68742C16.5467 7.78284 16.5035 7.87247 16.4442 7.95119C16.385 8.02992 16.3108 8.09621 16.2259 8.14626C16.141 8.19632 16.0471 8.22917 15.9495 8.24293C15.852 8.2567 15.7526 8.25111 15.6572 8.22649C15.5618 8.20186 15.4722 8.15869 15.3935 8.09943C15.3147 8.04016 15.2484 7.96598 15.1984 7.8811C15.1483 7.79622 15.1155 7.70231 15.1017 7.60474C15.088 7.50717 15.0935 7.40784 15.1182 7.31242C15.2642 6.7474 15.5401 6.22426 15.9238 5.78463C16.3076 5.34499 16.7887 5.00099 17.3288 4.78C17.869 4.55901 18.4532 4.46713 19.0351 4.51167C19.617 4.55621 20.1804 4.73594 20.6806 5.03656C21.1808 5.33718 21.6039 5.75039 21.9163 6.24332C22.2287 6.73624 22.4218 7.29527 22.4801 7.87593C22.5384 8.45659 22.4604 9.04285 22.2523 9.58806C22.0442 10.1333 21.7117 10.6224 21.2813 11.0165C22.3011 11.458 23.1877 12.1587 23.8528 13.049C23.9119 13.128 23.9549 13.2179 23.9792 13.3135C24.0035 13.4091 24.0087 13.5085 23.9945 13.6062C23.9803 13.7038 23.947 13.7976 23.8965 13.8824C23.8459 13.9671 23.7792 14.041 23.7 14.0999ZM18.6488 19.8749C18.7031 19.9603 18.7395 20.0557 18.7559 20.1556C18.7723 20.2554 18.7684 20.3575 18.7443 20.4557C18.7203 20.554 18.6766 20.6463 18.6159 20.7272C18.5552 20.8082 18.4788 20.876 18.3912 20.9266C18.3036 20.9772 18.2067 21.0096 18.1063 21.0218C18.0059 21.034 17.904 21.0258 17.8069 20.9976C17.7097 20.9694 17.6193 20.9219 17.541 20.8578C17.4627 20.7938 17.3982 20.7146 17.3513 20.6249C16.8788 19.8249 16.206 19.1619 15.3991 18.7014C14.5922 18.2408 13.6791 17.9986 12.75 17.9986C11.8209 17.9986 10.9079 18.2408 10.101 18.7014C9.29412 19.1619 8.62125 19.8249 8.14879 20.6249C8.1019 20.7146 8.03737 20.7938 7.95908 20.8578C7.88078 20.9219 7.79034 20.9694 7.69319 20.9976C7.59605 21.0258 7.4942 21.034 7.39379 21.0218C7.29338 21.0096 7.19647 20.9772 7.10889 20.9266C7.02132 20.876 6.94489 20.8082 6.8842 20.7272C6.82352 20.6463 6.77983 20.554 6.75576 20.4557C6.7317 20.3575 6.72775 20.2554 6.74417 20.1556C6.76059 20.0557 6.79702 19.9603 6.85129 19.8749C7.57841 18.6256 8.6871 17.6424 10.0144 17.0699C9.26753 16.4981 8.71863 15.7066 8.44485 14.8066C8.17108 13.9067 8.1862 12.9436 8.48808 12.0527C8.78997 11.1618 9.36346 10.3879 10.1279 9.83981C10.8924 9.29169 11.8094 8.99692 12.75 8.99692C13.6907 8.99692 14.6077 9.29169 15.3722 9.83981C16.1366 10.3879 16.7101 11.1618 17.012 12.0527C17.3139 12.9436 17.329 13.9067 17.0552 14.8066C16.7815 15.7066 16.2325 16.4981 15.4857 17.0699C16.813 17.6424 17.9217 18.6256 18.6488 19.8749ZM12.75 16.4999C13.3434 16.4999 13.9234 16.324 14.4167 15.9943C14.9101 15.6647 15.2946 15.1962 15.5217 14.648C15.7487 14.0998 15.8082 13.4966 15.6924 12.9147C15.5766 12.3327 15.2909 11.7982 14.8714 11.3786C14.4518 10.959 13.9173 10.6733 13.3353 10.5576C12.7534 10.4418 12.1502 10.5012 11.602 10.7283C11.0538 10.9553 10.5853 11.3399 10.2556 11.8332C9.92599 12.3266 9.75004 12.9066 9.75004 13.4999C9.75004 14.2956 10.0661 15.0586 10.6287 15.6212C11.1913 16.1839 11.9544 16.4999 12.75 16.4999ZM7.50004 11.2499C7.50004 11.051 7.42102 10.8602 7.28037 10.7196C7.13972 10.5789 6.94895 10.4999 6.75004 10.4999C6.32922 10.4999 5.91685 10.3818 5.55976 10.1592C5.20267 9.93653 4.91518 9.61819 4.72994 9.24034C4.54471 8.86248 4.46915 8.44025 4.51185 8.02161C4.55455 7.60296 4.7138 7.20468 4.97152 6.87201C5.22923 6.53933 5.57507 6.2856 5.96976 6.13963C6.36445 5.99365 6.79216 5.96129 7.20432 6.04622C7.61648 6.13115 7.99656 6.32996 8.30139 6.62007C8.60622 6.91018 8.82359 7.27997 8.92879 7.68742C8.97852 7.88012 9.10276 8.04517 9.27418 8.14626C9.4456 8.24736 9.65016 8.27621 9.84285 8.22649C10.0355 8.17676 10.2006 8.05252 10.3017 7.8811C10.4028 7.70968 10.4316 7.50512 10.3819 7.31242C10.2359 6.7474 9.96002 6.22426 9.57624 5.78463C9.19246 5.34499 8.71137 5.00099 8.17125 4.78C7.63112 4.55901 7.04688 4.46713 6.465 4.51167C5.88312 4.55621 5.31967 4.73594 4.81947 5.03656C4.31928 5.33718 3.89614 5.75039 3.58375 6.24332C3.27135 6.73624 3.07831 7.29527 3.01998 7.87593C2.96165 8.45659 3.03965 9.04285 3.24777 9.58806C3.45589 10.1333 3.78838 10.6224 4.21879 11.0165C3.19999 11.4585 2.31446 12.1591 1.65004 13.049C1.53057 13.2081 1.4792 13.4082 1.50725 13.6052C1.53529 13.8022 1.64044 13.98 1.79957 14.0995C1.9587 14.2189 2.15877 14.2703 2.35577 14.2422C2.55278 14.2142 2.73057 14.1091 2.85004 13.9499C3.30209 13.3423 3.89049 12.8493 4.56788 12.5106C5.24526 12.1719 5.99271 11.997 6.75004 11.9999C6.94895 11.9999 7.13972 11.9209 7.28037 11.7803C7.42102 11.6396 7.50004 11.4488 7.50004 11.2499Z" fill="black" fill-opacity="0.25"/>
</g>
<defs>
<clipPath id="clip0_22_2538">
<rect width="24" height="24" fill="white" transform="translate(0.75)"/>
</clipPath>
</defs>
</svg>
