<svg width="50" height="50" viewBox="0 0 50 50" fill="none" xmlns="http://www.w3.org/2000/svg">
<g id="Heart">
<rect x="0.5" y="0.5" width="49" height="49" rx="4.5" stroke="#0C9AE9"/>
<path id="Vector" d="M33.3346 25.9994C33.3348 28.1028 32.5066 30.1216 31.0294 31.619C29.5522 33.1163 27.5447 33.9717 25.4415 34H25.334C23.2907 34.0051 21.324 33.2231 19.8419 31.8165C19.7783 31.7563 19.7271 31.6842 19.6914 31.6042C19.6556 31.5242 19.636 31.438 19.6335 31.3504C19.6311 31.2629 19.6459 31.1757 19.6772 31.0938C19.7084 31.012 19.7555 30.9371 19.8157 30.8735C19.8759 30.8099 19.948 30.7587 20.028 30.7229C20.108 30.6872 20.1942 30.6675 20.2817 30.6651C20.3693 30.6626 20.4565 30.6775 20.5383 30.7087C20.6202 30.74 20.695 30.7871 20.7587 30.8472C21.7119 31.7462 22.9089 32.3444 24.2001 32.567C25.4913 32.7897 26.8195 32.6269 28.0188 32.0991C29.218 31.5713 30.2352 30.7018 30.9431 29.5992C31.6511 28.4967 32.0185 27.21 31.9994 25.8998C31.9804 24.5897 31.5757 23.3142 30.836 22.2328C30.0962 21.1513 29.0542 20.3117 27.8401 19.819C26.626 19.3263 25.2936 19.2023 24.0095 19.4624C22.7253 19.7225 21.5462 20.3552 20.6195 21.2816C20.6127 21.2889 20.6055 21.2959 20.5978 21.3024L18.3827 23.3325H20.667C20.8438 23.3325 21.0134 23.4028 21.1384 23.5278C21.2635 23.6528 21.3337 23.8224 21.3337 23.9993C21.3337 24.1761 21.2635 24.3457 21.1384 24.4707C21.0134 24.5957 20.8438 24.666 20.667 24.666H16.6667C16.4899 24.666 16.3203 24.5957 16.1953 24.4707C16.0702 24.3457 16 24.1761 16 23.9993V19.999C16 19.8221 16.0702 19.6526 16.1953 19.5275C16.3203 19.4025 16.4899 19.3322 16.6667 19.3322C16.8435 19.3322 17.0131 19.4025 17.1382 19.5275C17.2632 19.6526 17.3334 19.8221 17.3334 19.999V22.4825L19.6878 20.3323C20.8078 19.2166 22.2333 18.4577 23.7843 18.1515C25.3353 17.8453 26.9423 18.0055 28.4023 18.6118C29.8624 19.2181 31.1101 20.2434 31.9879 21.5582C32.8657 22.873 33.3344 24.4185 33.3346 25.9994Z" fill="#0C9AE9"/>
</g>
</svg>
