<svg width="32" height="32" viewBox="0 0 32 32" fill="none" xmlns="http://www.w3.org/2000/svg">
<g id="mdi:skate">
<path id="Vector" d="M27.9333 22.6665C27.5999 24.9198 25.6799 26.6665 23.3333 26.6665H21.3333V23.9998H25.3333C25.2399 22.2932 25.6799 18.7198 24.7066 17.2665C23.4133 14.5332 19.7733 14.0798 17.2399 13.3998C15.9999 13.3332 14.6666 11.9998 14.4533 10.6665H10.6666C10.2933 10.6665 9.99992 10.3732 9.99992 9.99984C9.99992 9.6265 10.2933 9.33317 10.6666 9.33317H13.9999V7.99984H10.6666C10.2933 7.99984 9.99992 7.7065 9.99992 7.33317C9.99992 6.95984 10.2933 6.6665 10.6666 6.6665H13.9999V2.6665H2.70659V23.9998H6.66659V26.6665H1.33325V29.3332H23.3333C27.1466 29.3332 30.2933 26.3998 30.6666 22.6665H27.9333ZM18.6666 26.6665H9.33325V23.9998H18.6666V26.6665Z" fill="#173460"/>
</g>
</svg>
