<svg width="25" height="24" viewBox="0 0 25 24" fill="none" xmlns="http://www.w3.org/2000/svg">
<path d="M19.5 21H14.8631C15.642 20.3045 16.3766 19.5608 17.0625 18.7734C19.6359 15.8138 21 12.6938 21 9.75C21 7.56196 20.1308 5.46354 18.5836 3.91637C17.0365 2.36919 14.938 1.5 12.75 1.5C10.562 1.5 8.46354 2.36919 6.91637 3.91637C5.36919 5.46354 4.5 7.56196 4.5 9.75C4.5 12.6938 5.86031 15.8138 8.4375 18.7734C9.12338 19.5608 9.85795 20.3045 10.6369 21H6C5.80109 21 5.61032 21.079 5.46967 21.2197C5.32902 21.3603 5.25 21.5511 5.25 21.75C5.25 21.9489 5.32902 22.1397 5.46967 22.2803C5.61032 22.421 5.80109 22.5 6 22.5H19.5C19.6989 22.5 19.8897 22.421 20.0303 22.2803C20.171 22.1397 20.25 21.9489 20.25 21.75C20.25 21.5511 20.171 21.3603 20.0303 21.2197C19.8897 21.079 19.6989 21 19.5 21ZM6 9.75C6 7.95979 6.71116 6.2429 7.97703 4.97703C9.2429 3.71116 10.9598 3 12.75 3C14.5402 3 16.2571 3.71116 17.523 4.97703C18.7888 6.2429 19.5 7.95979 19.5 9.75C19.5 15.1153 14.2997 19.5938 12.75 20.8125C11.2003 19.5938 6 15.1153 6 9.75ZM16.5 9.75C16.5 9.00832 16.2801 8.2833 15.868 7.66661C15.456 7.04993 14.8703 6.56928 14.1851 6.28545C13.4998 6.00162 12.7458 5.92736 12.0184 6.07205C11.291 6.21675 10.6228 6.5739 10.0983 7.09835C9.5739 7.6228 9.21675 8.29098 9.07205 9.01841C8.92736 9.74584 9.00162 10.4998 9.28545 11.1851C9.56928 11.8703 10.0499 12.456 10.6666 12.868C11.2833 13.2801 12.0083 13.5 12.75 13.5C13.7446 13.5 14.6984 13.1049 15.4017 12.4017C16.1049 11.6984 16.5 10.7446 16.5 9.75ZM10.5 9.75C10.5 9.30499 10.632 8.86998 10.8792 8.49997C11.1264 8.12996 11.4778 7.84157 11.889 7.67127C12.3001 7.50097 12.7525 7.45642 13.189 7.54323C13.6254 7.63005 14.0263 7.84434 14.341 8.15901C14.6557 8.47368 14.87 8.87459 14.9568 9.31105C15.0436 9.7475 14.999 10.1999 14.8287 10.611C14.6584 11.0222 14.37 11.3736 14 11.6208C13.63 11.868 13.195 12 12.75 12C12.1533 12 11.581 11.7629 11.159 11.341C10.7371 10.919 10.5 10.3467 10.5 9.75Z" fill="#173460"/>
</svg>
