<svg width="25" height="24" viewBox="0 0 25 24" fill="none" xmlns="http://www.w3.org/2000/svg">
<g id="MagnifyingGlass">
<path id="Vector" d="M22.2806 20.4693L17.5865 15.7762C18.9471 14.1428 19.6255 12.0478 19.4807 9.92691C19.3359 7.80604 18.379 5.82265 16.8091 4.38932C15.2392 2.95599 13.1771 2.18308 11.0519 2.23138C8.92663 2.27968 6.90181 3.14547 5.39864 4.64864C3.89547 6.15181 3.02968 8.17663 2.98138 10.3019C2.93308 12.4271 3.70599 14.4892 5.13932 16.0591C6.57265 17.629 8.55604 18.5859 10.6769 18.7307C12.7978 18.8755 14.8928 18.1971 16.5262 16.8365L21.2193 21.5306C21.289 21.6003 21.3718 21.6556 21.4628 21.6933C21.5538 21.731 21.6514 21.7504 21.75 21.7504C21.8485 21.7504 21.9461 21.731 22.0371 21.6933C22.1282 21.6556 22.2109 21.6003 22.2806 21.5306C22.3503 21.4609 22.4056 21.3782 22.4433 21.2871C22.481 21.1961 22.5004 21.0985 22.5004 21C22.5004 20.9014 22.481 20.8038 22.4433 20.7128C22.4056 20.6218 22.3503 20.539 22.2806 20.4693ZM4.49997 10.5C4.49997 9.16495 4.89585 7.8599 5.63755 6.74987C6.37925 5.63984 7.43346 4.77467 8.66686 4.26378C9.90026 3.75289 11.2575 3.61922 12.5668 3.87967C13.8762 4.14012 15.0789 4.78299 16.0229 5.727C16.9669 6.671 17.6098 7.87374 17.8703 9.18311C18.1307 10.4925 17.9971 11.8497 17.4862 13.0831C16.9753 14.3165 16.1101 15.3707 15.0001 16.1124C13.89 16.8541 12.585 17.25 11.25 17.25C9.46037 17.248 7.74463 16.5362 6.47919 15.2708C5.21375 14.0053 4.50196 12.2896 4.49997 10.5Z" fill="black" fill-opacity="0.75"/>
</g>
</svg>
