<svg width="25" height="25" viewBox="0 0 25 25" fill="none" xmlns="http://www.w3.org/2000/svg">
<g id="ShoppingCart">
<path id="Vector" d="M22.4746 5.74902C22.4013 5.66127 22.3096 5.59068 22.206 5.54225C22.1023 5.49382 21.9894 5.46873 21.875 5.46875H6.12109L5.52734 2.2041C5.49464 2.02409 5.3998 1.86126 5.25934 1.74401C5.11889 1.62676 4.94175 1.56253 4.75879 1.5625H2.34375C2.13655 1.5625 1.93784 1.64481 1.79132 1.79132C1.64481 1.93784 1.5625 2.13655 1.5625 2.34375C1.5625 2.55095 1.64481 2.74966 1.79132 2.89618C1.93784 3.04269 2.13655 3.125 2.34375 3.125H4.10156L6.59766 16.8252C6.67118 17.2315 6.85074 17.6112 7.11816 17.9258C6.74907 18.2705 6.48267 18.7108 6.34849 19.1977C6.21432 19.6846 6.21763 20.1991 6.35804 20.6843C6.49845 21.1694 6.77048 21.6062 7.14397 21.9462C7.51746 22.2861 7.97781 22.516 8.47398 22.6103C8.97015 22.7047 9.48275 22.6597 9.95493 22.4805C10.4271 22.3013 10.8404 21.9948 11.1491 21.595C11.4577 21.1952 11.6496 20.7178 11.7034 20.2156C11.7573 19.7134 11.671 19.2061 11.4541 18.75H15.8896C15.7149 19.1159 15.6244 19.5164 15.625 19.9219C15.625 20.4627 15.7854 20.9913 16.0858 21.441C16.3863 21.8907 16.8133 22.2411 17.313 22.4481C17.8126 22.6551 18.3624 22.7092 18.8928 22.6037C19.4232 22.4982 19.9105 22.2378 20.2929 21.8554C20.6753 21.473 20.9357 20.9857 21.0412 20.4553C21.1467 19.9249 21.0926 19.3751 20.8856 18.8755C20.6786 18.3758 20.3282 17.9488 19.8785 17.6483C19.4288 17.3479 18.9002 17.1875 18.3594 17.1875H8.90332C8.72036 17.1875 8.54322 17.1232 8.40276 17.006C8.26231 16.8887 8.16747 16.7259 8.13477 16.5459L7.82519 14.8438H19.1533C19.7022 14.8437 20.2336 14.651 20.655 14.2992C21.0763 13.9475 21.3609 13.459 21.459 12.9189L22.6465 6.38965C22.6666 6.2768 22.6616 6.1609 22.6319 6.05019C22.6022 5.93948 22.5485 5.83666 22.4746 5.74902ZM10.1562 19.9219C10.1562 20.1537 10.0875 20.3802 9.95875 20.5729C9.82999 20.7656 9.64696 20.9158 9.43283 21.0045C9.2187 21.0932 8.98307 21.1164 8.75575 21.0712C8.52843 21.026 8.31962 20.9144 8.15573 20.7505C7.99184 20.5866 7.88023 20.3778 7.83502 20.1505C7.7898 19.9232 7.81301 19.6876 7.9017 19.4734C7.9904 19.2593 8.1406 19.0763 8.33332 18.9475C8.52603 18.8187 8.7526 18.75 8.98438 18.75C9.29518 18.75 9.59325 18.8735 9.81302 19.0932C10.0328 19.313 10.1562 19.6111 10.1562 19.9219ZM19.5312 19.9219C19.5312 20.1537 19.4625 20.3802 19.3338 20.5729C19.205 20.7656 19.022 20.9158 18.8078 21.0045C18.5937 21.0932 18.3581 21.1164 18.1308 21.0712C17.9034 21.026 17.6946 20.9144 17.5307 20.7505C17.3668 20.5866 17.2552 20.3778 17.21 20.1505C17.1648 19.9232 17.188 19.6876 17.2767 19.4734C17.3654 19.2593 17.5156 19.0763 17.7083 18.9475C17.901 18.8187 18.1276 18.75 18.3594 18.75C18.6702 18.75 18.9682 18.8735 19.188 19.0932C19.4078 19.313 19.5312 19.6111 19.5312 19.9219ZM19.9219 12.6396C19.8891 12.8202 19.7938 12.9834 19.6528 13.1007C19.5117 13.218 19.3339 13.2819 19.1504 13.2812H7.54102L6.40527 7.03125H20.9385L19.9219 12.6396Z" fill="black"/>
</g>
</svg>
