<svg width="25" height="24" viewBox="0 0 25 24" fill="none" xmlns="http://www.w3.org/2000/svg">
<g id="CalendarStar">
<path id="Vector" d="M20.25 3H18V2.25C18 2.05109 17.921 1.86032 17.7803 1.71967C17.6397 1.57902 17.4489 1.5 17.25 1.5C17.0511 1.5 16.8603 1.57902 16.7197 1.71967C16.579 1.86032 16.5 2.05109 16.5 2.25V3H9V2.25C9 2.05109 8.92098 1.86032 8.78033 1.71967C8.63968 1.57902 8.44891 1.5 8.25 1.5C8.05109 1.5 7.86032 1.57902 7.71967 1.71967C7.57902 1.86032 7.5 2.05109 7.5 2.25V3H5.25C4.85218 3 4.47064 3.15804 4.18934 3.43934C3.90804 3.72064 3.75 4.10218 3.75 4.5V19.5C3.75 19.8978 3.90804 20.2794 4.18934 20.5607C4.47064 20.842 4.85218 21 5.25 21H20.25C20.6478 21 21.0294 20.842 21.3107 20.5607C21.592 20.2794 21.75 19.8978 21.75 19.5V4.5C21.75 4.10218 21.592 3.72064 21.3107 3.43934C21.0294 3.15804 20.6478 3 20.25 3ZM20.25 19.5H5.25V4.5H7.5V5.25C7.5 5.44891 7.57902 5.63968 7.71967 5.78033C7.86032 5.92098 8.05109 6 8.25 6C8.44891 6 8.63968 5.92098 8.78033 5.78033C8.92098 5.63968 9 5.44891 9 5.25V4.5H16.5V5.25C16.5 5.44891 16.579 5.63968 16.7197 5.78033C16.8603 5.92098 17.0511 6 17.25 6C17.4489 6 17.6397 5.92098 17.7803 5.78033C17.921 5.63968 18 5.44891 18 5.25V4.5H20.25V19.5ZM17.3081 10.6537L14.5106 10.4372L13.4391 7.95281C13.3812 7.81808 13.285 7.70327 13.1626 7.6226C13.0401 7.54194 12.8967 7.49894 12.75 7.49894C12.6033 7.49894 12.4599 7.54194 12.3374 7.6226C12.215 7.70327 12.1188 7.81808 12.0609 7.95281L10.9894 10.4372L8.19187 10.6537C8.043 10.6655 7.90101 10.7214 7.78411 10.8143C7.6672 10.9073 7.5807 11.033 7.53569 11.1754C7.49068 11.3178 7.4892 11.4703 7.53144 11.6136C7.57369 11.7568 7.65773 11.8842 7.77281 11.9794L9.88406 13.7222L9.24094 16.32C9.20568 16.4632 9.21345 16.6137 9.26326 16.7525C9.31308 16.8914 9.40273 17.0124 9.521 17.1006C9.63927 17.1887 9.7809 17.2401 9.92819 17.2481C10.0755 17.2562 10.2219 17.2206 10.3491 17.1459L12.75 15.7331L15.1509 17.1459C15.2781 17.2206 15.4245 17.2562 15.5718 17.2481C15.7191 17.2401 15.8607 17.1887 15.979 17.1006C16.0973 17.0124 16.1869 16.8914 16.2367 16.7525C16.2866 16.6137 16.2943 16.4632 16.2591 16.32L15.6159 13.7222L17.7272 11.9794C17.8423 11.8842 17.9263 11.7568 17.9686 11.6136C18.0108 11.4703 18.0093 11.3178 17.9643 11.1754C17.9193 11.033 17.8328 10.9073 17.7159 10.8143C17.599 10.7214 17.457 10.6655 17.3081 10.6537ZM14.2978 12.8663C14.1887 12.9561 14.1072 13.075 14.0628 13.2092C14.0183 13.3434 14.0127 13.4874 14.0466 13.6247L14.3747 14.9484L13.1306 14.2162C13.0153 14.1483 12.8839 14.1125 12.75 14.1125C12.6161 14.1125 12.4847 14.1483 12.3694 14.2162L11.1253 14.9484L11.4534 13.6247C11.4873 13.4874 11.4817 13.3434 11.4372 13.2092C11.3928 13.075 11.3113 12.9561 11.2022 12.8663L10.1606 12.0056L11.5566 11.8978C11.6927 11.8874 11.8235 11.8399 11.9347 11.7606C12.0458 11.6813 12.1333 11.5732 12.1875 11.4478L12.75 10.1428L13.3125 11.4478C13.3667 11.5732 13.4542 11.6813 13.5653 11.7606C13.6765 11.8399 13.8073 11.8874 13.9434 11.8978L15.3394 12.0056L14.2978 12.8663Z" fill="black" fill-opacity="0.25"/>
</g>
</svg>
