<svg width="32" height="32" viewBox="0 0 32 32" fill="none" xmlns="http://www.w3.org/2000/svg">
<g id="mdi:curling">
<path id="Vector" d="M13.3334 4.00024V6.66691C16.6667 6.66691 18.5334 6.73357 19.6267 7.21357C20.3467 7.53357 20.9734 8.28024 21.6667 9.33357H6.66675V12.0002H26.1601L25.1867 10.0669C23.8134 7.33357 22.6134 5.62691 20.7067 4.78691C18.8001 3.93357 16.6667 4.00024 13.3334 4.00024ZM8.00008 14.6669C5.04008 14.6669 2.66675 17.0402 2.66675 20.0002V24.0002C2.66675 26.9602 5.04008 29.3336 8.00008 29.3336H24.0001C26.9601 29.3336 29.3334 26.9602 29.3334 24.0002V20.0002C29.3334 17.0402 26.9601 14.6669 24.0001 14.6669H8.00008Z" fill="#173460"/>
</g>
</svg>
