<svg width="30" height="30" viewBox="0 0 30 30" fill="none" xmlns="http://www.w3.org/2000/svg">
<path d="M27.1875 12.1875C27.4361 12.1875 27.6746 12.0887 27.8504 11.9129C28.0262 11.7371 28.125 11.4986 28.125 11.25V7.5C28.125 7.00272 27.9275 6.52581 27.5758 6.17417C27.2242 5.82254 26.7473 5.625 26.25 5.625H3.75C3.25272 5.625 2.77581 5.82254 2.42417 6.17417C2.07254 6.52581 1.875 7.00272 1.875 7.5V11.25C1.875 11.4986 1.97377 11.7371 2.14959 11.9129C2.3254 12.0887 2.56386 12.1875 2.8125 12.1875C3.55842 12.1875 4.27379 12.4838 4.80124 13.0113C5.32868 13.5387 5.625 14.2541 5.625 15C5.625 15.7459 5.32868 16.4613 4.80124 16.9887C4.27379 17.5162 3.55842 17.8125 2.8125 17.8125C2.56386 17.8125 2.3254 17.9113 2.14959 18.0871C1.97377 18.2629 1.875 18.5014 1.875 18.75V22.5C1.875 22.9973 2.07254 23.4742 2.42417 23.8258C2.77581 24.1775 3.25272 24.375 3.75 24.375H26.25C26.7473 24.375 27.2242 24.1775 27.5758 23.8258C27.9275 23.4742 28.125 22.9973 28.125 22.5V18.75C28.125 18.5014 28.0262 18.2629 27.8504 18.0871C27.6746 17.9113 27.4361 17.8125 27.1875 17.8125C26.4416 17.8125 25.7262 17.5162 25.1988 16.9887C24.6713 16.4613 24.375 15.7459 24.375 15C24.375 14.2541 24.6713 13.5387 25.1988 13.0113C25.7262 12.4838 26.4416 12.1875 27.1875 12.1875ZM3.75 19.5938C4.80965 19.3786 5.76232 18.8037 6.4466 17.9665C7.13089 17.1293 7.5047 16.0813 7.5047 15C7.5047 13.9187 7.13089 12.8707 6.4466 12.0335C5.76232 11.1963 4.80965 10.6214 3.75 10.4063V7.5H18.5V22.5H3.75V19.5938Z" fill="black"/>
</svg>
