<svg width="25" height="24" viewBox="0 0 25 24" fill="none" xmlns="http://www.w3.org/2000/svg">
<g id="MopedFront">
<path id="Vector" d="M20.25 3.7501H16.425C16.2529 2.90238 15.793 2.14024 15.1232 1.59281C14.4534 1.04539 13.615 0.746338 12.75 0.746338C11.885 0.746338 11.0466 1.04539 10.3768 1.59281C9.70705 2.14024 9.24714 2.90238 9.075 3.7501H5.25C5.05109 3.7501 4.86032 3.82912 4.71967 3.96977C4.57902 4.11042 4.5 4.30118 4.5 4.5001C4.5 4.69901 4.57902 4.88977 4.71967 5.03043C4.86032 5.17108 5.05109 5.2501 5.25 5.2501H9.075C9.23759 6.04118 9.65123 6.75864 10.2544 7.29572C9.20977 7.77451 8.3244 8.54285 7.70327 9.50961C7.08214 10.4764 6.7513 11.601 6.75 12.7501V18.7501C6.75 19.1479 6.90804 19.5295 7.18934 19.8108C7.47064 20.0921 7.85218 20.2501 8.25 20.2501H9.75C9.75 21.0457 10.0661 21.8088 10.6287 22.3714C11.1913 22.934 11.9544 23.2501 12.75 23.2501C13.5456 23.2501 14.3087 22.934 14.8713 22.3714C15.4339 21.8088 15.75 21.0457 15.75 20.2501H17.25C17.6478 20.2501 18.0294 20.0921 18.3107 19.8108C18.592 19.5295 18.75 19.1479 18.75 18.7501V12.7501C18.7487 11.601 18.4179 10.4764 17.7967 9.50961C17.1756 8.54285 16.2902 7.77451 15.2456 7.29572C15.8488 6.75864 16.2624 6.04118 16.425 5.2501H20.25C20.4489 5.2501 20.6397 5.17108 20.7803 5.03043C20.921 4.88977 21 4.69901 21 4.5001C21 4.30118 20.921 4.11042 20.7803 3.96977C20.6397 3.82912 20.4489 3.7501 20.25 3.7501ZM14.25 20.2501C14.25 20.6479 14.092 21.0295 13.8107 21.3108C13.5294 21.5921 13.1478 21.7501 12.75 21.7501C12.3522 21.7501 11.9706 21.5921 11.6893 21.3108C11.408 21.0295 11.25 20.6479 11.25 20.2501V15.7501C11.25 15.3523 11.408 14.9707 11.6893 14.6894C11.9706 14.4081 12.3522 14.2501 12.75 14.2501C13.1478 14.2501 13.5294 14.4081 13.8107 14.6894C14.092 14.9707 14.25 15.3523 14.25 15.7501V20.2501ZM17.25 12.7501V18.7501H15.75V15.7501C15.75 14.9544 15.4339 14.1914 14.8713 13.6288C14.3087 13.0662 13.5456 12.7501 12.75 12.7501C11.9544 12.7501 11.1913 13.0662 10.6287 13.6288C10.0661 14.1914 9.75 14.9544 9.75 15.7501V18.7501H8.25V12.7501C8.25 11.5566 8.72411 10.412 9.56802 9.56812C10.4119 8.7242 11.5565 8.2501 12.75 8.2501C13.9435 8.2501 15.0881 8.7242 15.932 9.56812C16.7759 10.412 17.25 11.5566 17.25 12.7501ZM10.5 4.5001C10.5 4.05509 10.632 3.62007 10.8792 3.25006C11.1264 2.88005 11.4778 2.59167 11.889 2.42137C12.3001 2.25107 12.7525 2.20651 13.189 2.29333C13.6254 2.38015 14.0263 2.59444 14.341 2.90911C14.6557 3.22378 14.87 3.62469 14.9568 4.06114C15.0436 4.4976 14.999 4.95 14.8287 5.36114C14.6584 5.77227 14.37 6.12367 14 6.3709C13.63 6.61814 13.195 6.7501 12.75 6.7501C12.1533 6.7501 11.581 6.51304 11.159 6.09109C10.7371 5.66913 10.5 5.09683 10.5 4.5001Z" fill="black" fill-opacity="0.25"/>
</g>
</svg>
