<svg width="80" height="25" viewBox="0 0 80 25" fill="none" xmlns="http://www.w3.org/2000/svg">
<path d="M21.875 12.5C21.875 12.7072 21.7927 12.9059 21.6462 13.0524C21.4997 13.1989 21.301 13.2812 21.0938 13.2812H3.90625C3.69905 13.2812 3.50034 13.1989 3.35382 13.0524C3.20731 12.9059 3.125 12.7072 3.125 12.5C3.125 12.2928 3.20731 12.0941 3.35382 11.9476C3.50034 11.8011 3.69905 11.7188 3.90625 11.7188H21.0938C21.301 11.7188 21.4997 11.8011 21.6462 11.9476C21.7927 12.0941 21.875 12.2928 21.875 12.5ZM3.90625 7.03125H21.0938C21.301 7.03125 21.4997 6.94894 21.6462 6.80243C21.7927 6.65591 21.875 6.4572 21.875 6.25C21.875 6.0428 21.7927 5.84409 21.6462 5.69757C21.4997 5.55106 21.301 5.46875 21.0938 5.46875H3.90625C3.69905 5.46875 3.50034 5.55106 3.35382 5.69757C3.20731 5.84409 3.125 6.0428 3.125 6.25C3.125 6.4572 3.20731 6.65591 3.35382 6.80243C3.50034 6.94894 3.69905 7.03125 3.90625 7.03125ZM21.0938 17.9688H3.90625C3.69905 17.9688 3.50034 18.0511 3.35382 18.1976C3.20731 18.3441 3.125 18.5428 3.125 18.75C3.125 18.9572 3.20731 19.1559 3.35382 19.3024C3.50034 19.4489 3.69905 19.5312 3.90625 19.5312H21.0938C21.301 19.5312 21.4997 19.4489 21.6462 19.3024C21.7927 19.1559 21.875 18.9572 21.875 18.75C21.875 18.5428 21.7927 18.3441 21.6462 18.1976C21.4997 18.0511 21.301 17.9688 21.0938 17.9688Z" fill="black"/>
<path d="M47.1001 6.12V19.23H45.7501V12.54H44.0701V18.57H42.7801V6.39H44.0701V11.37H45.7501V6.12H47.1001ZM36.4801 15.9V7.68H37.8601V14.67C39.0751 14.67 40.3951 14.565 41.8801 14.28L42.0301 15.48C40.2301 15.825 38.7301 15.915 37.3201 15.9H36.4801ZM57.0061 8.22C57.0061 9.84 58.2811 11.355 60.3061 11.94L59.6161 13.05C58.0711 12.57 56.9161 11.565 56.3161 10.29C55.7311 11.655 54.5611 12.75 52.9861 13.26L52.2661 12.18C54.3211 11.55 55.5961 9.945 55.5961 8.22V8.07H52.6561V6.93H59.8861V8.07H57.0061V8.22ZM54.4561 19.08V13.83H55.8061V15.3H61.6561V13.83H63.0361V19.08H54.4561ZM55.8061 17.94H61.6561V16.41H55.8061V17.94ZM61.6561 13.23V6.12H63.0361V13.23H61.6561Z" fill="black"/>
<path d="M75 17.5L70.6699 10H79.3301L75 17.5Z" fill="black"/>
</svg>
