<svg width="32" height="32" viewBox="0 0 32 32" fill="none" xmlns="http://www.w3.org/2000/svg">
<rect width="32" height="32" fill="#333333"/>
<g id="&#235;&#148;&#148;&#236;&#158;&#144;&#236;&#157;&#184;">
<path d="M-130 -4750C-130 -4751.1 -129.105 -4752 -128 -4752H1116C1117.1 -4752 1118 -4751.1 1118 -4750V1424C1118 1425.1 1117.1 1426 1116 1426H-128C-129.105 1426 -130 1425.1 -130 1424V-4750Z" fill="#444444"/>
<path d="M-128 -4751H1116V-4753H-128V-4751ZM1117 -4750V1424H1119V-4750H1117ZM1116 1425H-128V1427H1116V1425ZM-129 1424V-4750H-131V1424H-129ZM-128 1425C-128.552 1425 -129 1424.55 -129 1424H-131C-131 1425.66 -129.657 1427 -128 1427V1425ZM1117 1424C1117 1424.55 1116.55 1425 1116 1425V1427C1117.66 1427 1119 1425.66 1119 1424H1117ZM1116 -4751C1116.55 -4751 1117 -4750.55 1117 -4750H1119C1119 -4751.66 1117.66 -4753 1116 -4753V-4751ZM-128 -4753C-129.657 -4753 -131 -4751.66 -131 -4750H-129C-129 -4750.55 -128.552 -4751 -128 -4751V-4753Z" fill="white" fill-opacity="0.1"/>
<g id="4 &#236;&#131;&#129;&#236;&#160;&#144; store" clip-path="url(#clip0_0_1)">
<rect width="360" height="1678" transform="translate(-30 -352)" fill="white"/>
<g id="Frame 1261155281">
<g id="Frame 1261155279">
<g id="Frame 1261155336">
<rect x="-12" y="-12" width="55" height="55" rx="11" fill="#E2E9FB" fill-opacity="0.6"/>
<g id="SquaresFour">
<path id="Vector" d="M13 5H7C6.46957 5 5.96086 5.21071 5.58579 5.58579C5.21071 5.96086 5 6.46957 5 7V13C5 13.5304 5.21071 14.0391 5.58579 14.4142C5.96086 14.7893 6.46957 15 7 15H13C13.5304 15 14.0391 14.7893 14.4142 14.4142C14.7893 14.0391 15 13.5304 15 13V7C15 6.46957 14.7893 5.96086 14.4142 5.58579C14.0391 5.21071 13.5304 5 13 5ZM13 13H7V7H13V13ZM25 5H19C18.4696 5 17.9609 5.21071 17.5858 5.58579C17.2107 5.96086 17 6.46957 17 7V13C17 13.5304 17.2107 14.0391 17.5858 14.4142C17.9609 14.7893 18.4696 15 19 15H25C25.5304 15 26.0391 14.7893 26.4142 14.4142C26.7893 14.0391 27 13.5304 27 13V7C27 6.46957 26.7893 5.96086 26.4142 5.58579C26.0391 5.21071 25.5304 5 25 5ZM25 13H19V7H25V13ZM13 17H7C6.46957 17 5.96086 17.2107 5.58579 17.5858C5.21071 17.9609 5 18.4696 5 19V25C5 25.5304 5.21071 26.0391 5.58579 26.4142C5.96086 26.7893 6.46957 27 7 27H13C13.5304 27 14.0391 26.7893 14.4142 26.4142C14.7893 26.0391 15 25.5304 15 25V19C15 18.4696 14.7893 17.9609 14.4142 17.5858C14.0391 17.2107 13.5304 17 13 17ZM13 25H7V19H13V25ZM25 17H19C18.4696 17 17.9609 17.2107 17.5858 17.5858C17.2107 17.9609 17 18.4696 17 19V25C17 25.5304 17.2107 26.0391 17.5858 26.4142C17.9609 26.7893 18.4696 27 19 27H25C25.5304 27 26.0391 26.7893 26.4142 26.4142C26.7893 26.0391 27 25.5304 27 25V19C27 18.4696 26.7893 17.9609 26.4142 17.5858C26.0391 17.2107 25.5304 17 25 17ZM25 25H19V19H25V25Z" fill="#173460"/>
</g>
</g>
</g>
</g>
</g>
</g>
<defs>
<clipPath id="clip0_0_1">
<rect width="360" height="1678" fill="white" transform="translate(-30 -352)"/>
</clipPath>
</defs>
</svg>
