<svg width="32" height="32" viewBox="0 0 32 32" fill="none" xmlns="http://www.w3.org/2000/svg">
<g id="mdi:ski">
<path id="Vector" d="M23.8934 17.7602C23.5601 17.7068 22.2801 17.3335 21.9467 17.1868L19.1867 25.8268L15.0667 24.3202L18.0001 16.6268L13.9334 12.0002L17.3334 10.0535C17.9334 11.5602 18.8934 12.8268 20.1601 13.8668C21.4267 14.9068 22.8801 15.5602 24.5067 15.8135L26.0001 11.2402L24.0801 10.6135L23.3867 12.7468C22.5067 12.3735 21.7334 11.8135 21.0667 11.0935C20.4001 10.3602 19.9201 9.50683 19.6267 8.54683L19.1867 7.10683C19.0267 6.5735 18.7201 6.14683 18.2801 5.82683C17.8401 5.52016 17.3334 5.3335 16.8401 5.2935C16.3201 5.2535 15.8134 5.3335 15.3334 5.6135L10.6667 8.30683C10.1734 8.58683 9.81341 8.98683 9.58675 9.4935C9.33341 10.0002 9.28008 10.5068 9.33341 11.0535C9.38675 11.6002 9.68008 12.0802 10.0534 12.4935L14.8134 17.4402L12.5601 23.3868L3.29341 20.0668L2.66675 21.9468L21.3867 28.7735C22.4267 29.1468 23.5334 29.3335 24.7067 29.3335C25.5334 29.3335 26.3467 29.2268 27.1467 29.0268C27.9334 28.8135 28.6667 28.5202 29.3334 28.1468L27.8267 26.6668C26.8267 27.1068 25.7867 27.3335 24.7067 27.3335C23.8267 27.3335 22.9467 27.1868 22.0667 26.8935L21.0667 26.5202L23.8934 17.7602ZM25.3334 4.00016C25.3334 5.48016 24.1467 6.66683 22.6667 6.66683C21.1867 6.66683 20.0001 5.48016 20.0001 4.00016C20.0001 2.52016 21.2001 1.3335 22.6667 1.3335C24.1334 1.3335 25.3334 2.5335 25.3334 4.00016Z" fill="#173460"/>
</g>
</svg>
