<svg width="25" height="24" viewBox="0 0 25 24" fill="none" xmlns="http://www.w3.org/2000/svg">
<g id="Tote">
<path id="Vector" d="M22.8751 6.50625C22.7329 6.34659 22.5584 6.21892 22.3631 6.13165C22.1679 6.04439 21.9564 5.99952 21.7426 6H17.2501C17.2501 4.80653 16.776 3.66193 15.9321 2.81802C15.0882 1.97411 13.9436 1.5 12.7501 1.5C11.5566 1.5 10.412 1.97411 9.56812 2.81802C8.7242 3.66193 8.2501 4.80653 8.2501 6H3.7576C3.54503 6.00057 3.33497 6.04596 3.14113 6.13319C2.94728 6.22042 2.774 6.34754 2.6326 6.50625C2.49238 6.66437 2.38715 6.85035 2.32382 7.05198C2.26048 7.25361 2.24047 7.46635 2.2651 7.67625L3.60197 18.9263C3.64533 19.2928 3.82232 19.6305 4.09906 19.8747C4.37581 20.1189 4.73288 20.2526 5.10197 20.25H20.4067C20.7758 20.2526 21.1328 20.1189 21.4096 19.8747C21.6863 19.6305 21.8633 19.2928 21.9067 18.9263L23.2435 7.67625C23.268 7.46628 23.2479 7.2535 23.1844 7.05187C23.1209 6.85023 23.0155 6.6643 22.8751 6.50625ZM12.7501 3C13.5457 3 14.3088 3.31607 14.8714 3.87868C15.434 4.44129 15.7501 5.20435 15.7501 6H9.7501C9.7501 5.20435 10.0662 4.44129 10.6288 3.87868C11.1914 3.31607 11.9544 3 12.7501 3ZM20.4151 18.75C20.4124 18.751 20.4094 18.751 20.4067 18.75H5.08604L3.7576 7.5H8.2501V9.75C8.2501 9.94891 8.32912 10.1397 8.46977 10.2803C8.61042 10.421 8.80119 10.5 9.0001 10.5C9.19901 10.5 9.38978 10.421 9.53043 10.2803C9.67108 10.1397 9.7501 9.94891 9.7501 9.75V7.5H15.7501V9.75C15.7501 9.94891 15.8291 10.1397 15.9698 10.2803C16.1104 10.421 16.3012 10.5 16.5001 10.5C16.699 10.5 16.8898 10.421 17.0304 10.2803C17.1711 10.1397 17.2501 9.94891 17.2501 9.75V7.5H21.7501L20.4151 18.75Z" fill="#173460"/>
</g>
</svg>
