<svg width="32" height="32" viewBox="0 0 32 32" fill="none" xmlns="http://www.w3.org/2000/svg">
<g id="material-symbols:sports-hockey">
<path id="Vector" d="M2.66675 26.6668V22.6668C2.66675 22.2891 2.79475 21.9726 3.05075 21.7175C3.30675 21.4624 3.62319 21.3344 4.00008 21.3335H5.33341V26.6668H2.66675ZM6.66675 26.6668V21.3335H12.0001L13.1334 18.7335L15.2667 23.4002L14.1334 25.9335C14.0223 26.1779 13.8556 26.3615 13.6334 26.4842C13.4112 26.6068 13.1779 26.6677 12.9334 26.6668H6.66675ZM26.6667 26.6668V21.3335H28.0001C28.3779 21.3335 28.6947 21.4615 28.9507 21.7175C29.2067 21.9735 29.3343 22.2899 29.3334 22.6668V26.6668H26.6667ZM25.3334 26.6668H19.0667C18.8223 26.6668 18.589 26.6059 18.3667 26.4842C18.1445 26.3624 17.9779 26.1788 17.8667 25.9335L8.46675 5.3335H12.9334L16.0001 12.2668L19.0667 5.3335H23.5334L18.1334 17.1335L20.0001 21.3335H25.3334V26.6668Z" fill="#173460"/>
</g>
</svg>
